<svg xmlns="http://www.w3.org/2000/svg" width="50" height="50" viewBox="0 0 50 50" fill="none">
  <path d="M3.12786 15.2451V24.3008H0.0103149V0.012181C0.114938 0.012181 0.212701 0.012181 0.310463 0.012181C2.30745 0.012181 4.30444 -0.0214978 6.30085 0.0231461C7.89078 0.0591745 9.37494 0.587852 10.5675 2.15117C12.1638 4.24317 12.6194 7.78256 11.7224 10.6366C10.958 13.0686 9.55217 14.3342 7.74442 14.852C6.92402 15.0869 6.07503 15.159 5.23518 15.2326C4.54913 15.2929 3.8585 15.2451 3.12728 15.2451H3.12786ZM3.14158 14.2199C4.09633 14.2199 5.02136 14.2583 5.94411 14.2097C6.95546 14.1565 7.70898 13.4328 8.15663 12.225C8.4442 11.4488 8.65516 10.599 8.80209 9.75003C9.15541 7.70502 9.04964 5.67334 8.50251 3.70666C8.0703 2.15509 7.27962 1.13611 6.02757 1.03351C5.08711 0.956751 4.14093 1.01471 3.19703 1.01471C3.18274 1.01471 3.16788 1.03977 3.14215 1.06327V14.2207L3.14158 14.2199Z" fill="white"/>
  <path d="M23.9375 41.2255C23.8684 40.1134 23.9193 39.0615 23.602 38.0731C23.1497 36.6633 22.2556 36.0359 21.1659 36.3962C20.561 36.5959 20.1768 37.1246 20.0465 37.9493C19.9178 38.7631 20.0859 39.4484 20.6536 39.9207C20.1528 40.1447 19.6829 40.2724 19.1889 40.0538C18.4611 39.7319 18.1089 38.7952 18.3674 37.8044C18.5949 36.9311 19.0317 36.3037 19.6377 35.902C20.732 35.1775 21.88 35.0678 23.0645 35.3396C23.7986 35.508 24.491 35.8213 25.113 36.3868C26.1506 37.3298 26.628 38.7263 26.7612 40.3648C26.835 41.2749 26.8458 42.1944 26.8864 43.157C26.9613 43.0873 27.0276 43.034 27.086 42.969C27.8177 42.1529 28.553 41.3422 29.2745 40.5081C29.374 40.393 29.4517 40.1619 29.4534 39.9833C29.4683 38.6534 29.462 37.3235 29.462 35.9936C29.462 35.8471 29.462 35.7007 29.462 35.519C29.5861 35.5096 29.6821 35.497 29.7781 35.4962C30.5134 35.4947 31.2492 35.5111 31.9838 35.4868C32.2531 35.4782 32.3371 35.5996 32.3103 35.9521C32.2908 36.209 32.3063 36.4714 32.3063 36.7768C32.3783 36.7267 32.4269 36.7063 32.4629 36.6656C33.2644 35.7602 34.2009 35.4563 35.2123 35.5589C36.3814 35.678 37.4065 36.2599 38.2526 37.4081C39.0507 38.4905 39.384 39.8283 39.396 41.3164C39.4183 44.0757 39.4035 46.8358 39.4035 49.5951C39.4035 49.6429 39.3949 49.6914 39.388 49.7674H36.5621C36.5621 49.617 36.5621 49.4721 36.5621 49.3272C36.5586 46.3565 36.5592 43.3857 36.5478 40.4141C36.5455 39.8698 36.5243 39.3176 36.4552 38.7827C36.2185 36.9483 35.1236 36.0758 33.8436 36.7102C33.5349 36.863 33.2313 37.1019 32.9792 37.3893C29.7507 41.0728 26.5285 44.7673 23.3132 48.4719C22.4242 49.4956 21.3991 49.9624 20.2569 49.9836C18.8562 50.0094 17.6327 48.3991 17.555 46.4536C17.4789 44.5402 18.2181 42.9071 19.5622 42.0237C20.7325 41.2537 21.9794 41.1034 23.2526 41.1715C23.4676 41.1832 23.682 41.2036 23.9393 41.2232L23.9375 41.2255ZM23.9741 41.9618C22.7204 41.8161 21.5615 42.0236 20.6096 43.186C20.007 43.9222 19.8075 44.8965 20.0293 45.9719C20.2369 46.9783 20.7114 47.6848 21.4769 47.8884C22.4437 48.1453 23.2166 47.6034 23.8375 46.6188C23.933 46.4677 23.9936 46.2241 23.9947 46.0228C24.0004 44.8166 23.9839 43.6112 23.9747 42.4051C23.9736 42.2711 23.9747 42.1372 23.9747 41.9618H23.9741Z" fill="white"/>
  <path d="M39.2091 0.17511H42.3421V15.0259C42.844 14.4792 43.2963 13.9889 43.7468 13.4954C45.1703 11.936 46.591 10.3719 48.0203 8.82349C48.1364 8.69817 48.3085 8.63865 48.46 8.61437C48.6801 8.57991 48.9059 8.60575 49.1523 8.68564C47.6973 10.292 46.2423 11.8984 44.761 13.533C46.5036 17.1625 48.237 20.7724 49.9927 24.4293C49.8669 24.4418 49.7892 24.4559 49.7114 24.4559C48.6584 24.4575 47.6053 24.452 46.5522 24.4614C46.3801 24.4629 46.2755 24.3972 46.1771 24.1919C44.9577 21.6378 43.7302 19.0908 42.5045 16.5422C42.4713 16.474 42.4318 16.4114 42.3501 16.2673V24.4097H39.2091V0.17511Z" fill="white"/>
  <path d="M21.8737 8.60965H25.0061V24.401H21.8845V22.331C21.7525 22.5291 21.6701 22.6505 21.5895 22.7743C20.9715 23.7149 20.1791 24.1849 19.2838 24.3682C18.0741 24.6157 16.9547 24.2679 15.9324 23.3601C14.9405 22.479 14.5197 21.1428 14.3991 19.5928C14.3619 19.1119 14.3471 18.6255 14.3459 18.1415C14.3414 15.1206 14.3437 12.0989 14.3437 9.07802V8.61748H17.4995C17.4995 8.79136 17.4995 8.94879 17.4995 9.107C17.5018 12.4263 17.4875 15.7464 17.5201 19.0649C17.5269 19.7824 17.6379 20.528 17.8145 21.2047C18.1284 22.4085 19.0294 23.0241 19.9453 22.7265C20.8966 22.4171 21.5644 21.6488 21.8291 20.3181C21.8662 20.1301 21.8714 19.9257 21.8719 19.7291C21.8742 16.1983 21.8737 12.6675 21.8737 9.13598C21.8737 8.97698 21.8737 8.8172 21.8737 8.61043V8.60965Z" fill="white"/>
  <path d="M47.0793 41.1832C47.0416 39.9763 47.0507 38.7912 46.5979 37.6979C45.9782 36.2019 44.661 36.0515 43.8817 36.6906C42.9979 37.4151 42.9092 39.417 43.7319 40.0358C43.7525 40.0515 43.7628 40.0914 43.7914 40.1454C43.1899 40.4031 42.6131 40.4822 42.0608 40.0013C41.5051 39.5173 41.2919 38.5915 41.5331 37.7464C41.755 36.971 42.1523 36.422 42.6788 36.0218C44.3014 34.7866 47.0027 35.0443 48.448 36.5919C49.3696 37.5788 49.8595 38.9267 49.9053 40.4838C49.9865 43.2392 49.9733 45.9993 49.9985 48.7578C50.0019 49.1651 49.9985 49.5716 49.9985 50H47.1685V47.4811C47.1479 47.4686 47.1273 47.4561 47.1062 47.4435C47.0519 47.5414 46.9953 47.637 46.9427 47.7365C45.8553 49.8128 43.8297 50.2859 42.5485 49.794C41.5383 49.4063 40.7133 47.8649 40.7053 46.3188C40.695 44.2605 41.5308 42.7129 43.0333 41.8756C44.2196 41.2145 45.4488 41.1527 46.6968 41.2153C46.7872 41.22 46.8781 41.2279 46.9684 41.2286C46.9935 41.2286 47.0187 41.2083 47.0782 41.1824L47.0793 41.1832ZM47.1353 41.9813C46.3132 41.8975 45.5591 41.9641 44.833 42.3479C43.9709 42.8029 43.2854 43.4749 43.1322 44.8487C42.9487 46.4998 43.872 48.027 45.0812 47.9808C45.8204 47.9526 46.435 47.4976 46.9364 46.7465C47.1005 46.5005 47.1633 46.2452 47.1576 45.9115C47.1382 44.7688 47.1405 43.6261 47.1353 42.4826C47.1348 42.3244 47.1353 42.1662 47.1353 41.9813Z" fill="white"/>
  <path d="M10.3182 48.8902V49.7783H0V27.8848H2.82197V48.8902H10.3182Z" fill="white"/>
  <path d="M34.4559 14.6295C35.0173 13.9974 35.2088 13.1884 35.0242 12.2383C34.8098 11.1355 34.2838 10.4275 33.4663 10.1917C32.3766 9.87846 31.3235 10.5653 30.8633 11.9892C29.9571 14.7924 29.9331 17.6316 30.9067 20.4175C31.495 22.0999 32.5527 22.9105 33.8807 23.0774C34.8332 23.1972 35.7594 23.003 36.6518 22.5213C36.6827 22.5048 36.7187 22.5064 36.8062 22.4884C35.8526 23.6679 34.7955 24.3775 33.5697 24.5765C30.961 25.0002 28.5187 23.1118 27.5016 19.7722C26.5383 16.6079 27.0505 12.7866 29.2545 10.5019C31.268 8.41461 33.4491 8.33315 35.7028 9.64819C36.5529 10.1448 37.1092 11.4316 37.0589 12.5563C36.9829 14.252 35.5158 15.4237 34.4553 14.6295H34.4559Z" fill="white"/>
  <path d="M15.4196 49.8371H12.6211V27.9584H15.4196V49.8371Z" fill="white"/>
  <path d="M32.3188 49.776H29.494C29.4883 49.6562 29.4774 49.5379 29.4774 49.4189C29.4717 47.2313 29.47 45.043 29.4586 42.8554C29.4574 42.6048 29.5083 42.4286 29.6598 42.2938C30.0149 41.9774 30.343 41.5764 30.7261 41.3501C31.543 40.8684 32.2016 41.4378 32.3046 42.6432C32.3194 42.8155 32.3183 42.9909 32.3188 43.1648C32.32 45.2161 32.3194 47.2673 32.3194 49.3186C32.3194 49.4643 32.3194 49.61 32.3194 49.7768L32.3188 49.776Z" fill="white"/>
  <path d="M26.8304 49.7807H24.1182C24.0673 49.2058 24.0616 48.7304 24.4646 48.3121C25.2079 47.5407 25.8979 46.6729 26.6103 45.8458C26.6714 45.7745 26.736 45.7095 26.8304 45.6077V49.7807Z" fill="white"/>
</svg> 